<svg width="90" height="25" viewBox="0 0 90 25" fill="none" xmlns="http://www.w3.org/2000/svg">
<path d="M10.008 18.088C9.56 18.44 9.024 18.72 8.4 18.928C7.776 19.136 7.152 19.24 6.528 19.24C5.44 19.24 4.488 19.024 3.672 18.592C2.856 18.16 2.216 17.56 1.752 16.792C1.304 16.008 1.08 15.088 1.08 14.032C1.08 12.976 1.32 12.056 1.8 11.272C2.296 10.488 2.936 9.888 3.72 9.472C4.52 9.04 5.376 8.824 6.288 8.824C7.088 8.824 7.8 8.936 8.424 9.16C9.064 9.384 9.608 9.688 10.056 10.072L8.952 11.512C8.664 11.288 8.312 11.088 7.896 10.912C7.48 10.736 7.008 10.648 6.48 10.648C5.904 10.648 5.368 10.8 4.872 11.104C4.392 11.392 4.008 11.792 3.72 12.304C3.448 12.816 3.312 13.392 3.312 14.032C3.312 14.64 3.456 15.208 3.744 15.736C4.032 16.248 4.432 16.656 4.944 16.96C5.456 17.248 6.04 17.392 6.696 17.392C7.128 17.392 7.52 17.328 7.872 17.2C8.24 17.072 8.568 16.896 8.856 16.672L10.008 18.088ZM14.5933 19.384C13.6973 19.384 12.9533 19.112 12.3613 18.568C11.7853 18.008 11.4813 17.288 11.4493 16.408V9.064H13.6813V15.616C13.7133 16.16 13.8653 16.6 14.1373 16.936C14.4253 17.272 14.8733 17.448 15.4813 17.464C16.0413 17.464 16.5373 17.304 16.9693 16.984C17.4173 16.648 17.7773 16.2 18.0493 15.64C18.3213 15.064 18.4573 14.416 18.4573 13.696V9.064H20.6893V19H18.6493L18.4573 16.552L18.5773 16.984C18.3853 17.448 18.0893 17.864 17.6893 18.232C17.3053 18.584 16.8493 18.864 16.3213 19.072C15.7933 19.28 15.2173 19.384 14.5933 19.384ZM29.1589 19.24C28.2469 19.24 27.4389 19.04 26.7349 18.64C26.0469 18.24 25.4949 17.736 25.0789 17.128L25.3429 16.432V19H23.1109V0.423999H25.3189V11.344L25.2469 10.504C25.6469 9.96 26.2149 9.52 26.9509 9.184C27.7029 8.832 28.5349 8.656 29.4469 8.656C30.3429 8.656 31.1589 8.872 31.8949 9.304C32.6309 9.736 33.2149 10.344 33.6469 11.128C34.0949 11.896 34.3189 12.816 34.3189 13.888C34.3189 15.008 34.0789 15.968 33.5989 16.768C33.1349 17.568 32.5109 18.184 31.7269 18.616C30.9429 19.032 30.0869 19.24 29.1589 19.24ZM28.7029 17.344C29.3429 17.344 29.9189 17.192 30.4309 16.888C30.9429 16.584 31.3429 16.176 31.6309 15.664C31.9189 15.136 32.0629 14.536 32.0629 13.864C32.0629 13.224 31.9109 12.648 31.6069 12.136C31.3189 11.608 30.9189 11.192 30.4069 10.888C29.9109 10.584 29.3429 10.432 28.7029 10.432C28.1589 10.432 27.6549 10.536 27.1909 10.744C26.7269 10.952 26.3349 11.24 26.0149 11.608C25.6949 11.96 25.4709 12.376 25.3429 12.856V14.848C25.4709 15.328 25.6869 15.76 25.9909 16.144C26.2949 16.512 26.6789 16.808 27.1429 17.032C27.6069 17.24 28.1269 17.344 28.7029 17.344ZM40.5054 19.24C39.3694 19.24 38.3934 19.016 37.5774 18.568C36.7614 18.104 36.1294 17.48 35.6814 16.696C35.2494 15.896 35.0334 14.984 35.0334 13.96C35.0334 12.984 35.2814 12.096 35.7774 11.296C36.2734 10.496 36.9374 9.856 37.7694 9.376C38.6014 8.896 39.5294 8.656 40.5534 8.656C41.8654 8.656 42.9534 9.04 43.8174 9.808C44.6814 10.576 45.2654 11.632 45.5694 12.976L37.3854 15.856L36.8574 14.536L43.5774 12.088L43.0974 12.4C42.9054 11.872 42.5854 11.416 42.1374 11.032C41.6894 10.632 41.1054 10.432 40.3854 10.432C39.7774 10.432 39.2334 10.584 38.7534 10.888C38.2734 11.176 37.8974 11.576 37.6254 12.088C37.3534 12.6 37.2174 13.184 37.2174 13.84C37.2174 14.528 37.3614 15.136 37.6494 15.664C37.9374 16.176 38.3294 16.584 38.8254 16.888C39.3374 17.176 39.9134 17.32 40.5534 17.32C40.9854 17.32 41.4014 17.24 41.8014 17.08C42.2174 16.92 42.6014 16.712 42.9534 16.456L43.9854 18.112C43.4894 18.448 42.9294 18.72 42.3054 18.928C41.6974 19.136 41.0974 19.24 40.5054 19.24ZM48.9182 9.064L49.1342 11.944L49.0142 11.56C49.2702 10.952 49.6382 10.44 50.1182 10.024C50.6142 9.592 51.1262 9.264 51.6542 9.04C52.1982 8.8 52.6702 8.68 53.0702 8.68L52.9502 10.888C52.1982 10.84 51.5342 10.984 50.9582 11.32C50.3982 11.656 49.9502 12.104 49.6142 12.664C49.2942 13.224 49.1342 13.824 49.1342 14.464V19H46.9262V9.064H48.9182ZM58.8637 23.92C58.1277 23.92 57.4797 23.832 56.9197 23.656C56.3597 23.496 55.8477 23.264 55.3837 22.96C54.9357 22.656 54.5037 22.312 54.0877 21.928L55.3837 20.416C55.9117 20.912 56.4477 21.296 56.9917 21.568C57.5357 21.84 58.1437 21.976 58.8157 21.976C59.5677 21.976 60.1997 21.848 60.7117 21.592C61.2397 21.352 61.6397 21.008 61.9117 20.56C62.1837 20.128 62.3197 19.624 62.3197 19.048L62.3437 16.36L62.5357 16.792C62.2477 17.48 61.7277 18.064 60.9757 18.544C60.2237 19.008 59.3117 19.24 58.2397 19.24C57.3277 19.24 56.4877 19.008 55.7197 18.544C54.9677 18.08 54.3597 17.456 53.8957 16.672C53.4477 15.872 53.2237 14.976 53.2237 13.984C53.2237 12.944 53.4637 12.032 53.9437 11.248C54.4237 10.448 55.0557 9.816 55.8397 9.352C56.6237 8.888 57.4797 8.656 58.4077 8.656C59.2877 8.656 60.0877 8.84 60.8077 9.208C61.5437 9.56 62.0797 10.016 62.4158 10.576L62.2957 10.984L62.5357 9.064H64.5757V19.072C64.5757 19.968 64.3437 20.784 63.8797 21.52C63.4157 22.256 62.7597 22.84 61.9117 23.272C61.0637 23.704 60.0477 23.92 58.8637 23.92ZM55.4557 13.936C55.4557 14.576 55.6077 15.16 55.9117 15.688C56.2157 16.216 56.6237 16.632 57.1357 16.936C57.6637 17.24 58.2477 17.392 58.8877 17.392C59.4797 17.392 60.0077 17.288 60.4717 17.08C60.9517 16.856 61.3517 16.56 61.6717 16.192C61.9917 15.808 62.2157 15.368 62.3437 14.872V12.904C62.1997 12.424 61.9597 12.008 61.6237 11.656C61.2877 11.288 60.8877 11.008 60.4237 10.816C59.9597 10.608 59.4477 10.504 58.8877 10.504C58.2477 10.504 57.6637 10.648 57.1357 10.936C56.6237 11.224 56.2157 11.632 55.9117 12.16C55.6077 12.672 55.4557 13.264 55.4557 13.936ZM70.1355 19.384C69.2395 19.384 68.4955 19.112 67.9035 18.568C67.3275 18.008 67.0235 17.288 66.9915 16.408V9.064H69.2235V15.616C69.2555 16.16 69.4075 16.6 69.6795 16.936C69.9675 17.272 70.4155 17.448 71.0235 17.464C71.5835 17.464 72.0795 17.304 72.5115 16.984C72.9595 16.648 73.3195 16.2 73.5915 15.64C73.8635 15.064 73.9995 14.416 73.9995 13.696V9.064H76.2315V19H74.1915L73.9995 16.552L74.1195 16.984C73.9275 17.448 73.6315 17.864 73.2315 18.232C72.8475 18.584 72.3915 18.864 71.8635 19.072C71.3355 19.28 70.7595 19.384 70.1355 19.384ZM80.6451 9.064L80.8371 11.488L80.7411 11.104C81.0611 10.368 81.5811 9.784 82.3011 9.352C83.0211 8.904 83.8531 8.68 84.7971 8.68C85.7411 8.68 86.5091 8.96 87.1011 9.52C87.7091 10.064 88.0211 10.776 88.0371 11.656V19H85.7811V12.448C85.7651 11.904 85.6051 11.464 85.3011 11.128C85.0131 10.776 84.5571 10.6 83.9331 10.6C83.3571 10.6 82.8371 10.76 82.3731 11.08C81.9091 11.4 81.5411 11.84 81.2691 12.4C81.0131 12.96 80.8851 13.608 80.8851 14.344V19H78.6531V9.064H80.6451Z" fill="#1D2830"/>
</svg>
